<!DOCTYPE svg PUBLIC "-//W3C//DTD SVG 1.1//EN" "http://www.w3.org/Graphics/SVG/1.1/DTD/svg11.dtd">

<!-- Uploaded to: SVG Repo, www.svgrepo.com, Transformed by: SVG Repo Mixer Tools -->
<svg
    version="1.0"
    id="Layer_1"
    xmlns="http://www.w3.org/2000/svg"
    xmlns:xlink="http://www.w3.org/1999/xlink"
    width="64px"
    height="64px"
    viewBox="-12.8 -12.8 89.60 89.60"
    enable-background="new 0 0 64 64"
    xml:space="preserve"
    fill="#000000"
    transform="rotate(0)matrix(1, 0, 0, 1, 0, 0)"
>
    <g id="SVGRepo_bgCarrier" stroke-width="0">
        <path
            transform="translate(-12.8, -12.8), scale(2.8)"
            d="M16,29.72725619269269C18.582616148835708,29.79553810531356,20.87644133824469,28.3613549406574,23.11237430039178,27.06707043537957C25.4472343677559,25.71552132440827,28.293966051098582,24.574286791429465,29.256116872635737,22.053865729353873C30.21226069432514,19.54918042158754,28.594642832458515,16.88848579619741,27.995530385056092,14.275303105671771C27.45058844837325,11.898398999513867,27.27110515205725,9.437983201129741,25.90120507820862,7.420556961611808C24.424487584901392,5.245822704547788,22.38010163781344,3.5236453492165474,19.974748960880582,2.463248186140696C17.345241969021544,1.3040328323195183,14.434041220257235,0.4843185009577975,11.634035516051004,1.1308904715711936C8.764324411412934,1.7935586801500722,6.388809186375896,3.775418046909341,4.5013252787835185,6.036341636357687C2.6369146571320092,8.269626878130612,1.470414853019824,10.972067481546484,1.0190439455641727,13.846063696079549C0.5635659755684277,16.746210648283363,0.3609209959120434,19.943863249840096,1.9271383813001535,22.426860556974468C3.4463175771163743,24.835286033193725,6.597625187838482,25.38602378450455,9.12528514987208,26.697265112344354C11.394203723833346,27.874282530972046,13.444848787738579,29.65970042685137,16,29.72725619269269"
            fill="#bcbdf9"
            strokewidth="0"
        />
    </g>

    <g id="SVGRepo_tracerCarrier" stroke-linecap="round" stroke-linejoin="round" />

    <g id="SVGRepo_iconCarrier">
        <g>
            <path fill="#F9EBB2" d="M56,62H10c-2.209,0-4-1.791-4-4s1.791-4,4-4h46V62z" />
            <g>
                <path fill="#6366F1" d="M6,4v49.537C7.062,52.584,8.461,52,10,52h2V2H8C6.896,2,6,2.896,6,4z" />
                <path fill="#6366F1" d="M56,2H14v50h42h2v-2V4C58,2.896,57.104,2,56,2z" />
            </g>
            <g>
                <path
                    fill="#394240"
                    d="M60,52V4c0-2.211-1.789-4-4-4H8C5.789,0,4,1.789,4,4v54c0,3.313,2.687,6,6,6h49c0.553,0,1-0.447,1-1 s-0.447-1-1-1h-1v-8C59.104,54,60,53.104,60,52z M6,4c0-1.104,0.896-2,2-2h4v50h-2c-1.539,0-2.938,0.584-4,1.537V4z M56,62H10 c-2.209,0-4-1.791-4-4s1.791-4,4-4h46V62z M56,52H14V2h42c1.104,0,2,0.896,2,2v46v2H56z"
                />
                <path
                    fill="#394240"
                    d="M43,26H23c-0.553,0-1,0.447-1,1s0.447,1,1,1h20c0.553,0,1-0.447,1-1S43.553,26,43,26z"
                />
                <path
                    fill="#394240"
                    d="M49,20H23c-0.553,0-1,0.447-1,1s0.447,1,1,1h26c0.553,0,1-0.447,1-1S49.553,20,49,20z"
                />
                <path
                    fill="#394240"
                    d="M23,16h12c0.553,0,1-0.447,1-1s-0.447-1-1-1H23c-0.553,0-1,0.447-1,1S22.447,16,23,16z"
                />
            </g>
            <path
                opacity="0.2"
                fill="#231F20"
                d="M6,4v49.537C7.062,52.584,8.461,52,10,52h2V2H8C6.896,2,6,2.896,6,4z"
            />
        </g>
    </g>
</svg>